<?xml version="1.0" standalone="no"?>
<!DOCTYPE svg PUBLIC "-//W3C//DTD SVG 20010904//EN"
 "http://www.w3.org/TR/2001/REC-SVG-20010904/DTD/svg10.dtd">
<svg version="1.0" xmlns="http://www.w3.org/2000/svg"
 width="512.000000pt" height="512.000000pt" viewBox="0 0 512.000000 512.000000"
 preserveAspectRatio="xMidYMid meet">
<metadata>
Created by potrace 1.11, written by Peter Selinger 2001-2013
</metadata>
<g transform="translate(0.000000,512.000000) scale(0.100000,-0.100000)"
fill="#000000" stroke="none">
<path d="M0 2560 l0 -2560 2560 0 2560 0 0 2560 0 2560 -2560 0 -2560 0 0
-2560z m4691 1493 c4 -4 1 -37 -7 -73 l-15 -65 -87 0 c-77 0 -92 -3 -135 -28
-59 -35 -101 -92 -117 -157 -26 -107 42 -232 150 -278 47 -19 136 -18 188 3
51 21 114 89 132 145 7 22 18 38 24 36 6 -3 35 -13 64 -22 28 -10 52 -24 52
-31 0 -32 -65 -138 -112 -184 -199 -193 -497 -141 -620 108 -30 62 -33 75 -33
163 0 82 4 103 27 152 48 104 149 191 266 229 43 15 76 18 136 15 43 -2 82 -8
87 -13z m-775 -358 c86 -165 191 -368 235 -452 43 -84 79 -155 79 -157 0 -12
-132 -78 -139 -70 -11 12 -471 904 -471 913 0 8 122 70 133 68 4 -1 78 -137
163 -302z m-370 -224 c22 -10 57 -38 78 -62 35 -41 266 -470 266 -495 0 -6
-27 -25 -60 -42 l-60 -32 -20 41 -21 40 -30 -60 c-54 -108 -161 -174 -284
-175 -89 -1 -145 28 -192 97 -96 144 -30 268 208 391 63 32 115 60 117 61 2 2
-8 22 -23 45 -50 80 -140 85 -238 14 -42 -31 -100 -97 -109 -126 -5 -14 -43
-4 -86 22 l-33 20 23 42 c97 175 324 282 464 219z m-634 -339 c6 -6 5 -33 -4
-73 l-15 -64 -66 3 c-89 5 -152 -17 -205 -71 -51 -52 -72 -101 -72 -166 0
-134 110 -243 244 -243 102 0 177 50 223 149 l24 52 62 -24 c70 -26 71 -29 30
-109 -53 -105 -167 -190 -292 -218 -66 -15 -169 1 -239 36 -64 33 -137 113
-175 194 -28 59 -32 77 -32 152 0 75 4 93 32 152 53 113 155 197 283 234 49
15 186 12 202 -4z m-793 -411 c49 -26 100 -83 143 -162 72 -131 198 -379 198
-389 0 -10 -111 -70 -129 -70 -5 0 -56 90 -113 201 -108 211 -146 262 -208
280 -74 22 -168 -29 -212 -114 -35 -70 -24 -113 91 -337 55 -109 101 -200 101
-203 0 -8 -130 -81 -134 -76 -4 5 -263 503 -309 594 l-35 70 69 38 69 37 25
-50 c14 -27 29 -50 34 -50 5 0 11 17 15 39 8 51 61 128 113 165 82 57 200 68
282 27z m-635 -636 c92 -178 168 -328 168 -332 1 -9 -111 -72 -128 -73 -6 0
-21 23 -34 50 -13 28 -26 50 -29 50 -4 0 -12 -23 -18 -51 -29 -118 -145 -209
-272 -211 -135 -2 -199 55 -315 282 -43 85 -96 187 -116 225 l-38 70 70 38
c38 21 71 37 72 35 2 -2 47 -91 102 -198 123 -241 164 -290 244 -290 83 0 153
46 185 122 31 75 23 103 -90 322 -58 112 -105 208 -105 213 0 7 114 71 131 72
3 1 81 -145 173 -324z m-876 -108 c18 -34 32 -67 32 -72 0 -6 -13 -19 -30 -28
-43 -26 -79 -78 -88 -128 -14 -79 2 -133 92 -310 47 -92 86 -172 86 -178 0 -5
-29 -25 -65 -44 l-65 -35 -49 92 c-26 50 -99 190 -161 311 -62 121 -117 226
-123 232 -16 22 0 41 62 73 33 16 62 30 64 30 2 0 16 -27 32 -60 29 -61 45
-69 45 -22 0 59 91 202 128 202 4 0 22 -28 40 -63z"/>
<path d="M3503 3087 c-149 -79 -189 -125 -163 -188 19 -46 49 -69 88 -69 63 0
115 23 163 71 61 60 72 109 38 180 -12 27 -27 49 -33 49 -6 0 -48 -20 -93 -43z"/>
</g>
</svg>
